# xmcd
#
# Track frame offsets: 
#        150
#        14337
#        30283
#        44999
#        59714
#        72366
#        84690
#        96909
#        108718
#        121377
#        134481
#        147259
#        160318
#        171174
#        183608
#        195969
#        208953
#        220833
#        232415
#        244116
#        256256
#        268030
#        280321
#        292962
#        304779
#
# Disc length: 4228 seconds
#
# Revision: 1
# Processed by: cddbd v1.5.2PL0 Copyright (c) Steve Scherf et al.
# Submitted via: ExactAudioCopy v1.0b1
#
DISCID=90108219
DTITLE=Various Artist - Sonny Terry and Brownie McGhee - Country Blues Troubado
DTITLE=urs 1938-1948 - Disc A
DYEAR=2008
DGENRE=Blues
TTITLE0=Sonny Terry - Mountain Blues
TTITLE1=Sonny Terry - The New John Henry
TTITLE2=Sonny Terry - Fox Chase
TTITLE3=Sonny Terry - Lost John
TTITLE4=Sonny Terry - Train Whistle Blues
TTITLE5=Sonny Terry - New Love Blues
TTITLE6=Sonny Terry - Harmonica Blues
TTITLE7=Sonny Terry - Harmonica And Washboard Breakdown
TTITLE8=Sonny Terry - Harmonica Stomp
TTITLE9=Sonny Terry - Harmonica And Washboard Blues
TTITLE10=Sonny Terry - Fourty-Four Whistle Blues
TTITLE11=Sonny Terry - Blowing The Blues
TTITLE12=Sonny Terry - Touch It Up And Go
TTITLE13=Brownie McGhee - Picking My Tomatoes
TTITLE14=Brownie McGhee - Me And My Dog Blues
TTITLE15=Brownie McGhee - Born For Bad Luck
TTITLE16=Brownie McGhee - I'm Calling Daisy
TTITLE17=Brownie McGhee - Step It Up And Go
TTITLE18=Brownie McGhee - My Barkin' Bulldog Blues
TTITLE19=Brownie McGhee - Let Me Tell You 'Bout My Baby
TTITLE20=Brownie McGhee - Poison Woman Blues
TTITLE21=Brownie McGhee - Back Door Stranger
TTITLE22=Brownie McGhee - Be Good To Me
TTITLE23=Brownie McGhee - Not Guilty Blues
TTITLE24=Brownie McGhee - Coal Miner Blues
EXTD=
EXTT0=
EXTT1=
EXTT2=
EXTT3=
EXTT4=
EXTT5=
EXTT6=
EXTT7=
EXTT8=
EXTT9=
EXTT10=
EXTT11=
EXTT12=
EXTT13=
EXTT14=
EXTT15=
EXTT16=
EXTT17=
EXTT18=
EXTT19=
EXTT20=
EXTT21=
EXTT22=
EXTT23=
EXTT24=
PLAYORDER=
